<svg width="129" height="40" viewBox="0 0 129 40" fill="none" xmlns="http://www.w3.org/2000/svg">
<rect width="129" height="40" rx="6" fill="#3248F2"/>
<path d="M24.7432 22H22.5557C22.5557 21.6992 22.3483 20.847 21.9336 19.4434H18.7754C18.347 20.8242 18.1328 21.6764 18.1328 22H16.0752C16.0752 21.8223 16.6061 20.3639 17.668 17.625C18.7344 14.8861 19.2676 13.3776 19.2676 13.0996H21.8516C21.8516 13.3594 22.3324 14.8473 23.2939 17.5635C24.2601 20.2751 24.7432 21.7539 24.7432 22ZM21.585 18.1377C20.8057 15.7861 20.416 14.5146 20.416 14.3232H20.3066C20.3066 14.501 19.9033 15.7725 19.0967 18.1377H21.585ZM31.8389 21.9932L30.2188 22.0479C30.1868 21.8883 30.1709 21.722 30.1709 21.5488H30.0684C29.5671 21.9818 28.9268 22.1982 28.1475 22.1982C27.2725 22.1982 26.5775 21.8815 26.0625 21.248C25.5475 20.6146 25.29 19.8626 25.29 18.9922C25.29 17.9941 25.5703 17.126 26.1309 16.3877C26.6914 15.6449 27.4707 15.2734 28.4688 15.2734C29.1159 15.2734 29.6012 15.3942 29.9248 15.6357H30.0205C30.0205 14.5602 29.9681 13.4779 29.8633 12.3887L31.7979 12.334C31.7249 13.3958 31.6885 14.9225 31.6885 16.9141C31.6885 18.9329 31.7386 20.626 31.8389 21.9932ZM30.123 20.4414C30.123 18.9876 30.0889 17.7845 30.0205 16.832C29.7061 16.6133 29.3301 16.5039 28.8926 16.5039C28.291 16.5039 27.8444 16.7272 27.5527 17.1738C27.2611 17.6204 27.1152 18.1673 27.1152 18.8145C27.1152 19.3887 27.2565 19.8854 27.5391 20.3047C27.8216 20.7194 28.2135 20.9268 28.7148 20.9268C29.3848 20.9268 29.8542 20.765 30.123 20.4414ZM39.5498 21.9932L37.9297 22.0479C37.8978 21.8883 37.8818 21.722 37.8818 21.5488H37.7793C37.278 21.9818 36.6377 22.1982 35.8584 22.1982C34.9834 22.1982 34.2884 21.8815 33.7734 21.248C33.2585 20.6146 33.001 19.8626 33.001 18.9922C33.001 17.9941 33.2812 17.126 33.8418 16.3877C34.4023 15.6449 35.1816 15.2734 36.1797 15.2734C36.8268 15.2734 37.3122 15.3942 37.6357 15.6357H37.7314C37.7314 14.5602 37.679 13.4779 37.5742 12.3887L39.5088 12.334C39.4359 13.3958 39.3994 14.9225 39.3994 16.9141C39.3994 18.9329 39.4495 20.626 39.5498 21.9932ZM37.834 20.4414C37.834 18.9876 37.7998 17.7845 37.7314 16.832C37.417 16.6133 37.041 16.5039 36.6035 16.5039C36.002 16.5039 35.5553 16.7272 35.2637 17.1738C34.972 17.6204 34.8262 18.1673 34.8262 18.8145C34.8262 19.3887 34.9674 19.8854 35.25 20.3047C35.5326 20.7194 35.9245 20.9268 36.4258 20.9268C37.0957 20.9268 37.5651 20.765 37.834 20.4414ZM51.2324 13.0996C51.2324 13.4733 50.7106 14.959 49.667 17.5566C48.6279 20.1543 48.1084 21.6354 48.1084 22H46.2285C46.2285 21.6491 45.7477 20.1611 44.7861 17.5361C43.8291 14.9111 43.3506 13.4323 43.3506 13.0996H45.5176C45.5176 13.4323 45.8229 14.6126 46.4336 16.6406C47.0443 18.6686 47.3496 19.8193 47.3496 20.0928H47.4658C47.4658 19.8285 47.7712 18.7188 48.3818 16.7637C48.9971 14.8086 49.3047 13.5872 49.3047 13.0996H51.2324ZM57.6035 18.0557C57.6035 18.2881 57.5898 18.5911 57.5625 18.9648L53.1602 19.04C53.224 19.555 53.445 19.9834 53.8232 20.3252C54.2015 20.667 54.6982 20.8379 55.3135 20.8379C55.9971 20.8379 56.724 20.7354 57.4941 20.5303L57.3574 21.8564C56.7285 22.0843 55.9492 22.1982 55.0195 22.1982C53.8438 22.1982 52.9414 21.8678 52.3125 21.207C51.6882 20.5462 51.376 19.751 51.376 18.8213C51.376 17.8506 51.6722 17.0098 52.2646 16.2988C52.8617 15.5833 53.6888 15.2256 54.7461 15.2256C55.7122 15.2256 56.43 15.4876 56.8994 16.0117C57.3688 16.5358 57.6035 17.2171 57.6035 18.0557ZM56.0039 17.9941C56.0039 16.946 55.5573 16.4219 54.6641 16.4219C53.8118 16.4219 53.306 16.9642 53.1465 18.0488L56.0039 17.9941ZM64.0156 20.5645L63.8994 21.8701C63.4847 22.0889 62.9219 22.1982 62.2109 22.1982C61.0352 22.1982 60.1305 21.8701 59.4971 21.2139C58.8682 20.5576 58.5537 19.7692 58.5537 18.8486C58.5537 17.8916 58.8841 17.0576 59.5449 16.3467C60.2057 15.6312 61.1104 15.2734 62.2588 15.2734C62.8193 15.2734 63.3184 15.3372 63.7559 15.4648L63.5234 16.8594C63.1042 16.6862 62.6348 16.5996 62.1152 16.5996C61.5638 16.5996 61.1286 16.7956 60.8096 17.1875C60.4906 17.5749 60.3311 18.0534 60.3311 18.623C60.3311 19.2428 60.5202 19.7669 60.8984 20.1953C61.2767 20.6237 61.8122 20.8379 62.5049 20.8379C62.9105 20.8379 63.4141 20.7467 64.0156 20.5645ZM71.2549 22H69.4365C69.5368 20.847 69.5869 19.7259 69.5869 18.6367C69.5869 17.8255 69.4844 17.2946 69.2793 17.0439C69.0742 16.7887 68.737 16.6611 68.2676 16.6611C67.7708 16.6611 67.2832 16.8275 66.8047 17.1602C66.8047 19.097 66.8275 20.7103 66.873 22H65.0547C65.1048 20.5872 65.1299 18.8942 65.1299 16.9209C65.1299 15.1025 65.0592 13.5918 64.918 12.3887L66.8525 12.2793C66.7842 13.7467 66.75 15.0228 66.75 16.1074H66.8389C67.4404 15.556 68.1286 15.2803 68.9033 15.2803C69.637 15.2803 70.2113 15.4466 70.626 15.7793C71.0452 16.112 71.2549 16.6976 71.2549 17.5361C71.2549 17.6227 71.248 17.8005 71.2344 18.0693C71.2253 18.3337 71.2207 18.5091 71.2207 18.5957C71.2207 19.3568 71.2321 20.4915 71.2549 22ZM74.7139 22H72.875C72.9388 21.0566 72.9707 19.9743 72.9707 18.7529C72.9707 17.5407 72.8932 16.4788 72.7383 15.5674L74.707 15.3691C74.6478 16.2533 74.6182 17.3812 74.6182 18.7529C74.6182 19.9242 74.6501 21.0065 74.7139 22ZM75.0283 13.4414C75.0283 13.7513 74.9212 14.0225 74.707 14.2549C74.4974 14.4873 74.2035 14.6035 73.8252 14.6035C73.5062 14.6035 73.2555 14.5033 73.0732 14.3027C72.8955 14.1022 72.8066 13.8607 72.8066 13.5781C72.8066 13.2682 72.9115 12.9993 73.1211 12.7715C73.3353 12.5436 73.6338 12.4297 74.0166 12.4297C74.3402 12.4297 74.5885 12.5299 74.7617 12.7305C74.9395 12.9264 75.0283 13.1634 75.0283 13.4414ZM81.4336 20.5645L81.3174 21.8701C80.9027 22.0889 80.3398 22.1982 79.6289 22.1982C78.4531 22.1982 77.5485 21.8701 76.915 21.2139C76.2861 20.5576 75.9717 19.7692 75.9717 18.8486C75.9717 17.8916 76.3021 17.0576 76.9629 16.3467C77.6237 15.6312 78.5283 15.2734 79.6768 15.2734C80.2373 15.2734 80.7363 15.3372 81.1738 15.4648L80.9414 16.8594C80.5221 16.6862 80.0527 16.5996 79.5332 16.5996C78.9818 16.5996 78.5465 16.7956 78.2275 17.1875C77.9085 17.5749 77.749 18.0534 77.749 18.623C77.749 19.2428 77.9382 19.7669 78.3164 20.1953C78.6947 20.6237 79.2301 20.8379 79.9229 20.8379C80.3285 20.8379 80.832 20.7467 81.4336 20.5645ZM84.5371 22H82.6709C82.7393 20.4368 82.7734 18.7438 82.7734 16.9209C82.7734 15.1436 82.7028 13.6328 82.5615 12.3887L84.5371 12.2793C84.4688 13.569 84.4346 15.1162 84.4346 16.9209C84.4346 18.7529 84.4688 20.446 84.5371 22ZM92.043 18.0557C92.043 18.2881 92.0293 18.5911 92.002 18.9648L87.5996 19.04C87.6634 19.555 87.8844 19.9834 88.2627 20.3252C88.641 20.667 89.1377 20.8379 89.7529 20.8379C90.4365 20.8379 91.1634 20.7354 91.9336 20.5303L91.7969 21.8564C91.168 22.0843 90.3887 22.1982 89.459 22.1982C88.2832 22.1982 87.3809 21.8678 86.752 21.207C86.1276 20.5462 85.8154 19.751 85.8154 18.8213C85.8154 17.8506 86.1117 17.0098 86.7041 16.2988C87.3011 15.5833 88.1283 15.2256 89.1855 15.2256C90.1517 15.2256 90.8695 15.4876 91.3389 16.0117C91.8083 16.5358 92.043 17.2171 92.043 18.0557ZM90.4434 17.9941C90.4434 16.946 89.9967 16.4219 89.1035 16.4219C88.2513 16.4219 87.7454 16.9642 87.5859 18.0488L90.4434 17.9941Z" fill="white"/>
<path d="M101 18H109" stroke="white" stroke-width="1.5" stroke-linecap="round" stroke-linejoin="round"/>
<path d="M105 22V14" stroke="white" stroke-width="1.5" stroke-linecap="round" stroke-linejoin="round"/>
</svg>
