<svg width="13" height="13" viewBox="0 0 13 13" fill="none" xmlns="http://www.w3.org/2000/svg">
<path d="M6.3335 4.25C6.3335 5.2165 5.55 6 4.5835 6C3.617 6 2.8335 5.2165 2.8335 4.25C2.8335 3.2835 3.617 2.5 4.5835 2.5C5.55 2.5 6.3335 3.2835 6.3335 4.25Z" stroke="#376C9D" stroke-width="1.5"/>
<path d="M7.0835 6C8.05 6 8.8335 5.2165 8.8335 4.25C8.8335 3.2835 8.05 2.5 7.0835 2.5" stroke="#376C9D" stroke-width="1.5" stroke-linecap="round"/>
<path d="M6.90495 10.5H2.26207C1.74923 10.5 1.3335 10.1162 1.3335 9.64285C1.3335 8.4594 2.37284 7.5 3.65493 7.5H5.51205C6.03465 7.5 6.51695 7.6594 6.90495 7.9284" stroke="#376C9D" stroke-width="1.5" stroke-linecap="round" stroke-linejoin="round"/>
<path d="M9.8335 7.5V10.5M11.3335 9H8.3335" stroke="#376C9D" stroke-width="1.5" stroke-linecap="round"/>
</svg>
