<svg width="25" height="25" viewBox="0 0 25 25" fill="none" xmlns="http://www.w3.org/2000/svg">
<path d="M3.5 11.5664C3.5 7.81668 3.5 5.94181 4.45491 4.62748C4.76331 4.20301 5.1366 3.82972 5.56107 3.52132C6.8754 2.56641 8.75027 2.56641 12.5 2.56641C16.2497 2.56641 18.1246 2.56641 19.4389 3.52132C19.8634 3.82972 20.2367 4.20301 20.5451 4.62748C21.5 5.94181 21.5 7.81668 21.5 11.5664V13.5664C21.5 17.3161 21.5 19.191 20.5451 20.5053C20.2367 20.9298 19.8634 21.3031 19.4389 21.6115C18.1246 22.5664 16.2497 22.5664 12.5 22.5664C8.75027 22.5664 6.8754 22.5664 5.56107 21.6115C5.1366 21.3031 4.76331 20.9298 4.45491 20.5053C3.5 19.191 3.5 17.3161 3.5 13.5664V11.5664Z" stroke="#FF742C" stroke-width="1.5" stroke-linecap="round" stroke-linejoin="round"/>
<path d="M15.5 10.0664H7.5M10.5 15.0664H7.5" stroke="#FF742C" stroke-width="1.5" stroke-linecap="round" stroke-linejoin="round"/>
</svg>
