<svg width="37" height="38" viewBox="0 0 37 38" fill="none" xmlns="http://www.w3.org/2000/svg">
<rect x="0.5" y="0.566406" width="36" height="37" rx="4" fill="#FF742C" fill-opacity="0.1"/>
<path d="M9 18.5664C9 14.0881 9 11.8489 10.3912 10.4576C11.7825 9.06641 14.0217 9.06641 18.5 9.06641C22.9783 9.06641 25.2175 9.06641 26.6088 10.4576C28 11.8489 28 14.0881 28 18.5664C28 23.0447 28 25.2839 26.6088 26.6752C25.2175 28.0664 22.9783 28.0664 18.5 28.0664C14.0217 28.0664 11.7825 28.0664 10.3912 26.6752C9 25.2839 9 23.0447 9 18.5664Z" stroke="#FF742C" stroke-width="1.5"/>
<path d="M14.5 20.3164C14.5 20.3164 16.1 21.2289 16.9 22.5664C16.9 22.5664 19.3 17.3164 22.5 15.5664" stroke="#FF742C" stroke-width="1.5" stroke-linecap="round" stroke-linejoin="round"/>
</svg>
