<svg width="37" height="38" viewBox="0 0 37 38" fill="none" xmlns="http://www.w3.org/2000/svg">
<rect x="0.5" y="0.566406" width="36" height="37" rx="4" fill="#FF742C" fill-opacity="0.1"/>
<path d="M9.5 17.5664C9.5 13.8167 9.5 11.9418 10.4549 10.6275C10.7633 10.203 11.1366 9.82972 11.5611 9.52132C12.8754 8.56641 14.7503 8.56641 18.5 8.56641C22.2497 8.56641 24.1246 8.56641 25.4389 9.52132C25.8634 9.82972 26.2367 10.203 26.5451 10.6275C27.5 11.9418 27.5 13.8167 27.5 17.5664V19.5664C27.5 23.3161 27.5 25.191 26.5451 26.5053C26.2367 26.9298 25.8634 27.3031 25.4389 27.6115C24.1246 28.5664 22.2497 28.5664 18.5 28.5664C14.7503 28.5664 12.8754 28.5664 11.5611 27.6115C11.1366 27.3031 10.7633 26.9298 10.4549 26.5053C9.5 25.191 9.5 23.3161 9.5 19.5664V17.5664Z" stroke="#FF742C" stroke-width="1.5" stroke-linecap="round" stroke-linejoin="round"/>
<path d="M21.5 16.0664H13.5M16.5 21.0664H13.5" stroke="#FF742C" stroke-width="1.5" stroke-linecap="round" stroke-linejoin="round"/>
</svg>
