<svg width="24" height="25" viewBox="0 0 24 25" fill="none" xmlns="http://www.w3.org/2000/svg">
<path d="M3 11.5664C3 7.81668 3 5.94181 3.95491 4.62748C4.26331 4.20301 4.6366 3.82972 5.06107 3.52132C6.3754 2.56641 8.25027 2.56641 12 2.56641C15.7497 2.56641 17.6246 2.56641 18.9389 3.52132C19.3634 3.82972 19.7367 4.20301 20.0451 4.62748C21 5.94181 21 7.81668 21 11.5664V13.5664C21 17.3161 21 19.191 20.0451 20.5053C19.7367 20.9298 19.3634 21.3031 18.9389 21.6115C17.6246 22.5664 15.7497 22.5664 12 22.5664C8.25027 22.5664 6.3754 22.5664 5.06107 21.6115C4.6366 21.3031 4.26331 20.9298 3.95491 20.5053C3 19.191 3 17.3161 3 13.5664V11.5664Z" stroke="#3248F2" stroke-width="1.5" stroke-linecap="round" stroke-linejoin="round"/>
<path d="M15 10.0664H7M10 15.0664H7" stroke="#3248F2" stroke-width="1.5" stroke-linecap="round" stroke-linejoin="round"/>
</svg>
