<svg width="16" height="17" viewBox="0 0 16 17" fill="none" xmlns="http://www.w3.org/2000/svg">
<mask id="path-1-outside-1_1858_5495" maskUnits="userSpaceOnUse" x="0.666504" y="1.75977" width="15" height="15" fill="black">
<rect fill="white" x="0.666504" y="1.75977" width="15" height="15"/>
<path d="M7.6665 15.4264H7.3665C4.6795 15.4264 3.336 15.4264 2.50125 14.524C1.6665 13.6216 1.6665 12.1692 1.6665 9.2643V8.9219C1.6665 6.01706 1.6665 4.56462 2.50125 3.66219C3.336 2.75977 4.6795 2.75977 7.3665 2.75977H8.63317C11.3202 2.75977 12.6637 2.75977 13.4984 3.66219C14.3332 4.56462 14.3332 6.01706 14.3332 8.9219C14.3332 9.20123 14.333 9.42643 14.333 9.42643"/>
</mask>
<path d="M7.6665 16.4264C8.21879 16.4264 8.6665 15.9787 8.6665 15.4264C8.6665 14.8741 8.21879 14.4264 7.6665 14.4264V16.4264ZM2.50125 14.524L1.76714 15.2031L1.76716 15.2031L2.50125 14.524ZM13.333 9.42555C13.3325 9.97783 13.7798 10.4259 14.3321 10.4264C14.8844 10.4269 15.3325 9.9796 15.333 9.42732L13.333 9.42555ZM7.6665 14.4264H7.3665V16.4264H7.6665V14.4264ZM7.3665 14.4264C5.99251 14.4264 5.07064 14.424 4.38311 14.324C3.73285 14.2295 3.43999 14.0662 3.23534 13.845L1.76716 15.2031C2.39726 15.8842 3.19352 16.1721 4.09545 16.3032C4.96011 16.4289 6.05349 16.4264 7.3665 16.4264V14.4264ZM3.23536 13.845C3.02044 13.6126 2.85543 13.2633 2.7632 12.5217C2.66833 11.7588 2.6665 10.7429 2.6665 9.2643H0.666504C0.666504 10.6905 0.664682 11.8533 0.778492 12.7685C0.89495 13.7049 1.14731 14.5329 1.76714 15.2031L3.23536 13.845ZM2.6665 9.2643V8.9219H0.666504V9.2643H2.6665ZM2.6665 8.9219C2.6665 7.44328 2.66833 6.42745 2.7632 5.66455C2.85543 4.92294 3.02044 4.57356 3.23535 4.34124L1.76715 2.98315C1.14731 3.65325 0.894949 4.4813 0.778492 5.41773C0.664682 6.33287 0.666504 7.49568 0.666504 8.9219H2.6665ZM3.23535 4.34124C3.44 4.11999 3.73286 3.95668 4.38312 3.86217C5.07064 3.76224 5.99251 3.75977 7.3665 3.75977V1.75977C6.05349 1.75977 4.9601 1.75729 4.09544 1.88297C3.19351 2.01406 2.39725 2.30197 1.76715 2.98315L3.23535 4.34124ZM7.3665 3.75977H8.63317V1.75977H7.3665V3.75977ZM8.63317 3.75977C10.0072 3.75977 10.929 3.76224 11.6166 3.86217C12.2668 3.95668 12.5597 4.11999 12.7643 4.34123L14.2325 2.98316C13.6024 2.30197 12.8062 2.01406 11.9042 1.88297C11.0396 1.75729 9.94618 1.75977 8.63317 1.75977V3.75977ZM12.7643 4.34123C12.9792 4.57356 13.1442 4.92294 13.2365 5.66455C13.3313 6.42745 13.3332 7.44328 13.3332 8.9219H15.3332C15.3332 7.49568 15.335 6.33287 15.2212 5.41773C15.1047 4.48131 14.8524 3.65325 14.2325 2.98316L12.7643 4.34123ZM13.3332 8.9219C13.3332 9.06134 13.3331 9.18728 13.3331 9.27837C13.333 9.32391 13.333 9.36072 13.333 9.38615C13.333 9.39886 13.333 9.40872 13.333 9.4154C13.333 9.41874 13.333 9.42128 13.333 9.42298C13.333 9.42384 13.333 9.42448 13.333 9.42491C13.333 9.42512 13.333 9.42528 13.333 9.42539C13.333 9.42544 13.333 9.42548 13.333 9.42551C13.333 9.42552 13.333 9.42553 13.333 9.42554C13.333 9.42554 13.333 9.42554 13.333 9.42554C13.333 9.42555 13.333 9.42555 14.333 9.42643C15.333 9.42732 15.333 9.42732 15.333 9.42732C15.333 9.42731 15.333 9.42731 15.333 9.42731C15.333 9.4273 15.333 9.42729 15.333 9.42727C15.333 9.42724 15.333 9.4272 15.333 9.42715C15.333 9.42703 15.333 9.42687 15.333 9.42665C15.333 9.42621 15.333 9.42555 15.333 9.42469C15.333 9.42296 15.333 9.42039 15.333 9.41702C15.333 9.4103 15.333 9.40038 15.333 9.38762C15.333 9.36208 15.333 9.32514 15.3331 9.27946C15.3331 9.18812 15.3332 9.06179 15.3332 8.9219H13.3332Z" fill="#728075" mask="url(#path-1-outside-1_1858_5495)"/>
<path d="M10.0169 14.743L13.3168 11.4432M14.0002 13.0931C14.0002 14.3818 12.9555 15.4264 11.6668 15.4264C10.3782 15.4264 9.3335 14.3818 9.3335 13.0931C9.3335 11.8044 10.3782 10.7598 11.6668 10.7598C12.9555 10.7598 14.0002 11.8044 14.0002 13.0931Z" stroke="#728075" stroke-width="1.5" stroke-linejoin="round"/>
<path d="M12 2.09375V3.42708M4 2.09375V3.42708" stroke="#728075" stroke-width="1.5" stroke-linecap="round" stroke-linejoin="round"/>
<path d="M2 6.09375H14" stroke="#728075" stroke-width="1.5" stroke-linecap="round" stroke-linejoin="round"/>
</svg>
