<svg width="37" height="38" viewBox="0 0 37 38" fill="none" xmlns="http://www.w3.org/2000/svg">
<rect x="0.5" y="0.566406" width="36" height="37" rx="4" fill="#FF742C" fill-opacity="0.1"/>
<path d="M18.5 14.3164V19.5664" stroke="#FF742C" stroke-width="1.5" stroke-linecap="round" stroke-linejoin="round"/>
<path d="M27.5802 15.1464V21.9864C27.5802 23.1064 26.9802 24.1464 26.0102 24.7164L20.0702 28.1464C19.1002 28.7064 17.9002 28.7064 16.9202 28.1464L10.9802 24.7164C10.0102 24.1564 9.41016 23.1164 9.41016 21.9864V15.1464C9.41016 14.0264 10.0102 12.9864 10.9802 12.4164L16.9202 8.98641C17.8902 8.42641 19.0902 8.42641 20.0702 8.98641L26.0102 12.4164C26.9802 12.9864 27.5802 14.0164 27.5802 15.1464Z" stroke="#FF742C" stroke-width="1.5" stroke-linecap="round" stroke-linejoin="round"/>
<path d="M18.5 22.7664V22.8664" stroke="#FF742C" stroke-width="2" stroke-linecap="round" stroke-linejoin="round"/>
</svg>
