<svg width="49" height="47" viewBox="0 0 49 47" fill="none" xmlns="http://www.w3.org/2000/svg">
<rect width="49" height="46" transform="translate(0 0.5)" fill="#3248F2"/>
<path d="M12.6854 16.46V30.5H9.26539V16.46H12.6854ZM25.2638 16.46V19.2H21.5438V30.5H18.1238V19.2H14.4038V16.46H25.2638ZM26.4002 23.46C26.4002 22.0733 26.7002 20.84 27.3002 19.76C27.9002 18.6667 28.7336 17.82 29.8002 17.22C30.8802 16.6067 32.1002 16.3 33.4602 16.3C35.1269 16.3 36.5536 16.74 37.7402 17.62C38.9269 18.5 39.7202 19.7 40.1202 21.22H36.3602C36.0802 20.6333 35.6802 20.1867 35.1602 19.88C34.6536 19.5733 34.0736 19.42 33.4202 19.42C32.3669 19.42 31.5136 19.7867 30.8602 20.52C30.2069 21.2533 29.8802 22.2333 29.8802 23.46C29.8802 24.6867 30.2069 25.6667 30.8602 26.4C31.5136 27.1333 32.3669 27.5 33.4202 27.5C34.0736 27.5 34.6536 27.3467 35.1602 27.04C35.6802 26.7333 36.0802 26.2867 36.3602 25.7H40.1202C39.7202 27.22 38.9269 28.42 37.7402 29.3C36.5536 30.1667 35.1269 30.6 33.4602 30.6C32.1002 30.6 30.8802 30.3 29.8002 29.7C28.7336 29.0867 27.9002 28.24 27.3002 27.16C26.7002 26.08 26.4002 24.8467 26.4002 23.46Z" fill="white"/>
</svg>
