<svg width="16" height="17" viewBox="0 0 16 17" fill="none" xmlns="http://www.w3.org/2000/svg">
<g clip-path="url(#clip0_1858_27610)">
<path d="M0.201322 8.57645L0.12908 8.75977L0.201322 8.94308C1.42712 12.0536 4.45348 14.2598 7.99984 14.2598C11.5462 14.2598 14.5726 12.0536 15.7984 8.94308L15.8706 8.75977L15.7984 8.57645C14.5726 5.46591 11.5462 3.25977 7.99984 3.25977C4.45348 3.25977 1.42712 5.46591 0.201322 8.57645ZM5.8932 5.96669C5.04744 6.60626 4.49984 7.62043 4.49984 8.75977C4.49984 9.90036 5.04865 10.9155 5.896 11.555C4.53463 11.0546 3.39118 10.0731 2.68204 8.75979C3.39041 7.44844 4.53441 6.46775 5.8932 5.96669ZM10.1037 11.555C10.951 10.9155 11.4998 9.90036 11.4998 8.75977C11.4998 7.62043 10.9522 6.60626 10.1065 5.96669C11.4653 6.46775 12.6093 7.44844 13.3176 8.75979C12.6085 10.0731 11.465 11.0546 10.1037 11.555ZM7.99984 7.5931C8.64369 7.5931 9.1665 8.11591 9.1665 8.75977C9.1665 9.40362 8.64369 9.92643 7.99984 9.92643C7.35598 9.92643 6.83317 9.40362 6.83317 8.75977C6.83317 8.11591 7.35598 7.5931 7.99984 7.5931Z" stroke="#728075"/>
</g>
<defs>
<clipPath id="clip0_1858_27610">
<rect width="16" height="16" fill="white" transform="translate(0 0.759766)"/>
</clipPath>
</defs>
</svg>
