<svg width="20" height="20" viewBox="0 0 20 20" fill="none" xmlns="http://www.w3.org/2000/svg">
<g opacity="0.8">
<path d="M1.6665 18.3317V9.99634" stroke="white" stroke-width="1.5" stroke-linecap="round" stroke-linejoin="round"/>
<path d="M18.3335 18.3317V9.99634" stroke="white" stroke-width="1.5" stroke-linecap="round" stroke-linejoin="round"/>
<path d="M10 18.331V17.498" stroke="white" stroke-width="1.5" stroke-linecap="round" stroke-linejoin="round"/>
<path d="M10 14.9969V14.1638" stroke="white" stroke-width="1.5" stroke-linecap="round" stroke-linejoin="round"/>
<path d="M4.77094 4.712L5.46255 5.34447M5.46255 5.34447C5.59522 5.12087 5.82518 4.72913 5.90136 4.48405C6.56706 2.34246 6.62604 1.75249 7.65404 1.66821H12.3431C13.3711 1.75249 13.4301 2.34246 14.0958 4.48405C14.1719 4.72913 14.3603 5.12087 14.493 5.34447M5.46255 5.34447C4.95862 6.19387 4.29092 6.74976 4.19087 7.48366C4.1745 7.6037 4.19087 8.94311 4.19087 9.91503C4.19087 10.6452 4.8941 10.6229 5.57929 10.6797C6.01473 10.7159 6.4508 10.7949 6.88771 10.7994C9.30925 10.824 10.9103 10.8266 13.3058 10.8004C13.7689 10.7954 14.2357 10.7084 14.6973 10.6692C15.2186 10.6249 15.7636 10.5662 15.8063 9.91503C15.8698 8.9442 15.8226 7.6037 15.8063 7.48366C15.7062 6.74976 14.9969 6.19387 14.493 5.34447M5.46255 5.34447H14.493M14.493 5.34447L15.3032 4.712M4.33618 7.02449L5.34324 7.79096M8.79825 8.75936H11.2472M14.6833 7.77197L15.7955 7.41734M5.90136 10.7125L5.83635 12.0823M14.1517 10.7296V12.0823" stroke="white" stroke-width="1.5" stroke-linecap="round"/>
</g>
</svg>
