<svg width="20" height="20" viewBox="0 0 20 20" fill="none" xmlns="http://www.w3.org/2000/svg">
<g opacity="0.8">
<path d="M15.5986 8.92933C15.438 9.08167 15.2233 9.16675 14.9999 9.16675C14.7765 9.16675 14.5618 9.08167 14.4013 8.92933C12.9304 7.52649 10.9594 5.95934 11.9207 3.68412C12.4403 2.45393 13.6879 1.66675 14.9999 1.66675C16.3119 1.66675 17.5594 2.45393 18.0792 3.68412C19.0392 5.95647 17.073 7.53132 15.5986 8.92933Z" stroke="white" stroke-width="1.5"/>
<path d="M15 5H15.0075" stroke="white" stroke-width="2" stroke-linecap="round" stroke-linejoin="round"/>
<path d="M4.1665 18.3333C5.54722 18.3333 6.6665 17.214 6.6665 15.8333C6.6665 14.4525 5.54722 13.3333 4.1665 13.3333C2.78579 13.3333 1.6665 14.4525 1.6665 15.8333C1.6665 17.214 2.78579 18.3333 4.1665 18.3333Z" stroke="white" stroke-width="1.5" stroke-linecap="round" stroke-linejoin="round"/>
<path d="M9.16667 5.83325H7.91667C6.30583 5.83325 5 6.95254 5 8.33325C5 9.714 6.30583 10.8333 7.91667 10.8333H10.4167C12.0275 10.8333 13.3333 11.9525 13.3333 13.3333C13.3333 14.714 12.0275 15.8333 10.4167 15.8333H9.16667" stroke="white" stroke-width="1.5" stroke-linecap="round" stroke-linejoin="round"/>
</g>
</svg>
