<svg width="20" height="20" viewBox="0 0 20 20" fill="none" xmlns="http://www.w3.org/2000/svg">
<g opacity="0.8">
<path d="M5.00342 8.33341V4.16675M9.17008 8.33341V4.16675M13.3367 8.33341V4.58341" stroke="white" stroke-width="1.5" stroke-linecap="round" stroke-linejoin="round"/>
<path d="M4.18007 14.1667C2.99678 14.1667 2.40513 14.1667 2.03752 13.8007C1.66992 13.4345 1.66992 12.8452 1.66992 11.6667V6.66675C1.66992 5.48824 1.66992 4.89898 2.03752 4.53286C2.40513 4.16675 2.99678 4.16675 4.18007 4.16675H10.0837C12.9785 4.16675 14.4258 4.16675 15.5335 4.75528C16.3492 5.18869 17.0288 5.838 17.4976 6.63163C18.1341 7.70934 18.1943 9.14958 18.3149 12.0301C18.3473 12.8066 18.3636 13.1948 18.2118 13.4886C18.1003 13.7046 17.9279 13.8835 17.7159 14.0035C17.4275 14.1667 17.0374 14.1667 16.2571 14.1667H15.8366M7.50325 14.1667H12.5032" stroke="white" stroke-width="1.5" stroke-linecap="round" stroke-linejoin="round"/>
<path d="M5.83659 15.8333C6.75706 15.8333 7.50325 15.0872 7.50325 14.1667C7.50325 13.2462 6.75706 12.5 5.83659 12.5C4.91611 12.5 4.16992 13.2462 4.16992 14.1667C4.16992 15.0872 4.91611 15.8333 5.83659 15.8333Z" stroke="white" stroke-width="1.5"/>
<path d="M14.1701 15.8333C15.0906 15.8333 15.8368 15.0872 15.8368 14.1667C15.8368 13.2462 15.0906 12.5 14.1701 12.5C13.2496 12.5 12.5034 13.2462 12.5034 14.1667C12.5034 15.0872 13.2496 15.8333 14.1701 15.8333Z" stroke="white" stroke-width="1.5"/>
<path d="M1.66357 8.33398H12.8036C13.3261 8.33398 13.5036 8.63998 13.9036 9.11998C14.3636 9.56998 14.6746 9.88557 15.1036 9.94998C15.7036 10.04 17.9236 9.99498 17.9236 9.99498" stroke="white" stroke-width="1.5" stroke-linecap="round"/>
</g>
</svg>
