<svg width="16" height="17" viewBox="0 0 16 17" fill="none" xmlns="http://www.w3.org/2000/svg">
<mask id="path-1-outside-1_1858_3527" maskUnits="userSpaceOnUse" x="0.333496" y="1.09375" width="15" height="15" fill="black">
<rect fill="white" x="0.333496" y="1.09375" width="15" height="15"/>
<path d="M13.9986 9.09588C13.9986 9.09588 14.0002 8.78295 14.0002 8.42902C14.0002 5.44256 14.0002 3.94931 13.0727 3.02153C12.1452 2.09375 10.6524 2.09375 7.66683 2.09375C4.68127 2.09375 3.18849 2.09375 2.26099 3.02153C1.3335 3.94931 1.3335 5.44256 1.3335 8.42902C1.3335 11.4156 1.3335 12.9088 2.26099 13.8366C3.03873 14.6146 4.21394 14.7402 6.3335 14.7604"/>
</mask>
<path d="M12.9986 9.09098C12.9959 9.64326 13.4415 10.0932 13.9937 10.0959C14.546 10.0986 14.9959 9.65306 14.9986 9.10078L12.9986 9.09098ZM13.0727 3.02153L13.7799 2.31454L13.7799 2.31452L13.0727 3.02153ZM2.26099 3.02153L1.55378 2.31453L1.55377 2.31453L2.26099 3.02153ZM2.26099 13.8366L2.96821 13.1296L2.96821 13.1296L2.26099 13.8366ZM6.32394 15.7604C6.87619 15.7657 7.32817 15.3222 7.33345 14.77C7.33873 14.2177 6.89532 13.7657 6.34306 13.7605L6.32394 15.7604ZM13.9986 9.09588C14.9986 9.10078 14.9986 9.10078 14.9986 9.10077C14.9986 9.10077 14.9986 9.10077 14.9986 9.10076C14.9986 9.10075 14.9986 9.10073 14.9986 9.1007C14.9986 9.10066 14.9986 9.10059 14.9986 9.10051C14.9986 9.10035 14.9986 9.1001 14.9986 9.09979C14.9986 9.09915 14.9986 9.09822 14.9986 9.097C14.9986 9.09457 14.9987 9.09097 14.9987 9.08628C14.9987 9.0769 14.9988 9.06316 14.9989 9.04558C14.999 9.01043 14.9992 8.95992 14.9994 8.89831C14.9998 8.77515 15.0002 8.60734 15.0002 8.42902H13.0002C13.0002 8.60463 12.9998 8.77025 12.9994 8.89205C12.9992 8.95291 12.999 9.00275 12.9989 9.03733C12.9988 9.05462 12.9987 9.06809 12.9987 9.07721C12.9987 9.08177 12.9987 9.08524 12.9987 9.08756C12.9987 9.08872 12.9986 9.08959 12.9986 9.09016C12.9986 9.09045 12.9986 9.09066 12.9986 9.0908C12.9986 9.09087 12.9986 9.09092 12.9986 9.09095C12.9986 9.09096 12.9986 9.09097 12.9986 9.09098C12.9986 9.09098 12.9986 9.09098 12.9986 9.09098C12.9986 9.09098 12.9986 9.09098 13.9986 9.09588ZM15.0002 8.42902C15.0002 6.96405 15.0023 5.76475 14.8753 4.82007C14.7445 3.84665 14.4604 2.99522 13.7799 2.31454L12.3655 3.72852C12.6125 3.97562 12.7921 4.33471 12.8931 5.08647C12.998 5.86697 13.0002 6.90753 13.0002 8.42902H15.0002ZM13.7799 2.31452C13.0994 1.63382 12.2481 1.34954 11.2748 1.21864C10.3303 1.09162 9.13132 1.09375 7.66683 1.09375V3.09375C9.18787 3.09375 10.228 3.09588 11.0082 3.2008C11.7596 3.30185 12.1185 3.48146 12.3655 3.72854L13.7799 2.31452ZM7.66683 1.09375C6.20233 1.09375 5.00332 1.09162 4.05885 1.21865C3.08558 1.34954 2.23428 1.63382 1.55378 2.31453L2.9682 3.72853C3.2152 3.48146 3.57404 3.30185 4.32542 3.2008C5.10561 3.09588 6.14577 3.09375 7.66683 3.09375V1.09375ZM1.55377 2.31453C0.873312 2.9952 0.589177 3.84664 0.458345 4.82006C0.331374 5.76475 0.333496 6.96405 0.333496 8.42902H2.3335C2.3335 6.90753 2.33562 5.86697 2.44052 5.08648C2.54156 4.33472 2.72117 3.97564 2.96821 3.72853L1.55377 2.31453ZM0.333496 8.42902C0.333496 9.89402 0.331374 11.0933 0.458345 12.038C0.589178 13.0114 0.873314 13.8629 1.55377 14.5435L2.96821 13.1296C2.72117 12.8824 2.54156 12.5234 2.44052 11.7716C2.33562 10.9911 2.3335 9.95055 2.3335 8.42902H0.333496ZM1.55376 14.5435C2.1218 15.1118 2.81162 15.406 3.59796 15.5632C4.35661 15.7149 5.26615 15.7503 6.32394 15.7604L6.34306 13.7605C5.28129 13.7503 4.54344 13.7127 3.99016 13.6021C3.46457 13.4969 3.17792 13.3393 2.96821 13.1296L1.55376 14.5435Z" fill="#728075" mask="url(#path-1-outside-1_1858_3527)"/>
<path d="M1.3335 5.42578H14.0002" stroke="#728075" stroke-width="1.5" stroke-linejoin="round"/>
<path d="M4 11.4264H4.66667M6.66667 8.75977H10M4 8.75977H4.66667" stroke="#728075" stroke-width="1.5" stroke-linecap="round" stroke-linejoin="round"/>
<path d="M11.3335 13.0938H11.3395" stroke="#728075" stroke-width="2" stroke-linecap="round" stroke-linejoin="round"/>
<path d="M14.5147 12.7748C14.616 12.9169 14.6667 12.9879 14.6667 13.0931C14.6667 13.1983 14.616 13.2693 14.5147 13.4114C14.0593 14.05 12.8964 15.4264 11.3333 15.4264C9.77027 15.4264 8.60733 14.05 8.152 13.4114C8.05067 13.2693 8 13.1983 8 13.0931C8 12.9879 8.05067 12.9169 8.152 12.7748C8.60733 12.1362 9.77027 10.7598 11.3333 10.7598C12.8964 10.7598 14.0593 12.1362 14.5147 12.7748Z" stroke="#728075" stroke-width="1.5"/>
</svg>
